<svg width="960" height="540" xmlns="http://www.w3.org/2000/svg" xmlns:xlink="http://www.w3.org/1999/xlink" overflow="hidden"><defs><clipPath id="clip0"><rect x="0" y="0" width="960" height="540"/></clipPath></defs><g clip-path="url(#clip0)"><rect x="0" y="0" width="960" height="540" fill="#FFFFFF"/><rect x="291" y="244" width="152" height="35" fill="#8EB6F8"/><path d="M323 261.5C323 266.747 318.747 271 313.5 271 308.253 271 304 266.747 304 261.5 304 256.253 308.253 252 313.5 252 318.747 252 323 256.253 323 261.5Z" fill="#FFFFFF" fill-rule="evenodd"/><path d="M427 260C427 261.657 425.657 263 424 263 422.343 263 421 261.657 421 260 421 258.343 422.343 257 424 257 425.657 257 427 258.343 427 260Z" fill="#FFFFFF" fill-rule="evenodd"/><rect x="0" y="0" width="152" height="6" fill="#8EB6F8" transform="matrix(-1 1.22465e-16 1.22465e-16 1 443 284)"/><path d="M661 170 837 170 749 327Z" fill="#B43CCC" fill-rule="evenodd" fill-opacity="0.439216"/><rect x="714" y="343" width="68" height="16" fill="#8EB6F8"/><path d="M768 351C768 348.791 770.015 347 772.5 347 774.985 347 777 348.791 777 351 777 353.209 774.985 355 772.5 355 770.015 355 768 353.209 768 351Z" fill="#FFFFFF" fill-rule="evenodd"/><path d="M721 351.5C721 350.672 721.672 350 722.5 350 723.328 350 724 350.672 724 351.5 724 352.328 723.328 353 722.5 353 721.672 353 721 352.328 721 351.5Z" fill="#FFFFFF" fill-rule="evenodd"/><rect x="0" y="0" width="68" height="3" fill="#8EB6F8" transform="matrix(1 0 0 -1 714 341)"/><path d="M750 348.5 750 383.991 747 383.991 747 348.5ZM748.5 383.991 753 380.991 748.5 389.991 744 380.991Z" fill="#595959"/><path d="M6.01159-1.45259 97.0744-0.733771 97.0507 2.26614 5.98791 1.54731ZM5.99981 0.0473607 8.9642 4.5709 0 0 9.03524-4.42882ZM97.0625 0.766183 94.0982-3.75736 103.062 0.813543 94.0271 5.24236Z" fill="#595959" transform="matrix(1 -1.22465e-16 -1.22465e-16 -1 697.5 349.314)"/><path d="M6.09302 1.06071 17.0631 5.92465 15.8471 8.66716 4.87704 3.80323ZM25.2906 9.5726 36.2607 14.4365 35.0447 17.179 24.0746 12.3151ZM44.4882 18.0845 45.0452 18.3314 43.8292 21.0739 43.2722 20.827ZM5.48503 2.43197 6.40357 7.76172 0 0 10.0515-0.465819Z" fill="#595959" transform="matrix(-1 1.22465e-16 1.22465e-16 1 792.937 328.5)"/><text fill="#002060" font-family="Open Sans,Open Sans_MSFontService,sans-serif" font-weight="700" font-size="12" transform="translate(727.995 396)">Y<tspan font-size="8" x="7.5" y="0">2</tspan><tspan font-size="12" x="75.4036" y="-42">X</tspan><tspan font-size="8" x="83.4036" y="-42">2</tspan><tspan font-size="12" x="64.1194" y="-68">Z</tspan><tspan font-size="8" x="71.1194" y="-68">2</tspan><tspan font-size="12" x="-62.3403" y="-41">-</tspan><tspan font-size="12" x="-58.507" y="-41">X</tspan><tspan font-size="8" x="-50.507" y="-41">2</tspan></text><path d="M720 480C720 483.314 717.314 486 714 486 710.686 486 708 483.314 708 480 708 476.686 710.686 474 714 474 717.314 474 720 476.686 720 480Z" fill="#FFFFFF" fill-rule="evenodd"/><path d="M783 479.5C783 480.328 782.328 481 781.5 481 780.672 481 780 480.328 780 479.5 780 478.672 780.672 478 781.5 478 782.328 478 783 478.672 783 479.5Z" fill="#FFFFFF" fill-rule="evenodd"/><path d="M1.5-5.63041e-07 1.5001 273.696-1.4999 273.696-1.5 5.63041e-07ZM0.000102735 273.696 4.5001 270.696 0.000104987 279.696-4.4999 270.696Z" fill="#595959" transform="matrix(1 0 0 -1 582.5 417.196)"/><path d="M907.759 421.481 548.486 418.057 548.514 415.057 907.788 418.481ZM907.775 419.981 904.818 415.453 913.774 420.038 904.732 424.452ZM548.5 416.557 551.457 421.086 542.5 416.5 551.542 412.086Z" fill="#595959"/><text fill="#002060" font-family="Open Sans,Open Sans_MSFontService,sans-serif" font-weight="700" font-size="15" transform="translate(513.021 419)">-<tspan font-size="15" x="4.66669" y="0">X</tspan><tspan font-size="15" x="55.3852" y="-281">Y</tspan><tspan font-size="15" x="407.769" y="3">X</tspan></text><path d="M360 267.945 360 183.5 363 183.5 363 267.945ZM361.5 183.5 357 186.5 361.5 177.5 366 186.5Z" fill="#595959"/><path d="M6.01234-1.45242 217.894 0.225958 217.87 3.22586 5.98858 1.54748ZM5.99981 0.047526 8.96407 4.57115 0 0 9.03536-4.42857ZM217.882 1.72591 214.918-2.79771 223.882 1.77344 214.847 6.20201Z" fill="#595959" transform="matrix(-1 0 0 1 473.382 265.5)"/><path d="M5.39713 3.02018 14.1351 11.245 12.0789 13.4295 3.34093 5.20468ZM20.6886 17.4136 29.4266 25.6384 27.3704 27.8229 18.6324 19.5981ZM35.9801 31.807 44.7181 40.0318 42.6619 42.2163 33.9239 33.9915ZM51.2716 46.2004 60.0096 54.4252 57.9534 56.6097 49.2154 48.3849ZM66.5631 60.5938 75.3011 68.8186 73.2449 71.0032 64.5069 62.7783ZM4.369 4.1124 3.46919 9.44535 0 0 9.6378 2.89186Z" fill="#595959" transform="matrix(1 -1.22465e-16 -1.22465e-16 -1 284.5 340.81)"/><text fill="#002060" font-family="Open Sans,Open Sans_MSFontService,sans-serif" font-weight="700" font-size="19" transform="translate(347.65 185)">Y<tspan font-size="19" x="-112.159" y="91">X</tspan><tspan font-size="19" x="-76.6373" y="169">Z</tspan><tspan font-size="19" x="132.323" y="93">-</tspan>X<tspan fill="#404040" font-family="Segoe UI Light,Segoe UI Light_MSFontService,sans-serif" font-weight="300" font-size="13" x="-103.962" y="229">@violetasdev</tspan></text></g></svg>